<svg version="1.1" id="Layer_1" xmlns="http://www.w3.org/2000/svg" xmlns:xlink="http://www.w3.org/1999/xlink" x="0px" y="0px"
	 width="100%" viewBox="0 0 250 247" enable-background="new 0 0 250 247" xml:space="preserve">
<path fill="#ED1C24" opacity="1.000000" stroke="none" 
	d="
M90.000000,1.000001 
	C115.020897,1.000000 140.041794,1.000000 165.241882,1.322322 
	C167.164871,2.435852 168.846939,3.426543 170.661819,3.987931 
	C192.937256,10.878252 211.656952,23.115940 225.949142,41.582623 
	C236.239716,54.878899 243.150513,70.002007 248.062210,86.065201 
	C248.605911,87.843323 250.000183,89.361351 251.000000,91.000000 
	C251.000000,91.444443 251.000000,91.888893 250.740021,92.339127 
	C250.220001,92.898506 249.959991,93.452103 249.699982,94.005707 
	C250.133316,94.003807 250.566666,94.001900 251.000000,94.000000 
	C251.000000,113.687561 251.000000,133.375122 250.531342,153.531097 
	C197.423218,153.999527 144.783752,153.999527 92.144295,153.999527 
	C92.144821,154.333023 92.145340,154.666504 92.145866,155.000000 
	C145.097244,155.000000 198.048615,155.000000 251.000000,155.000000 
	C251.000000,155.000000 251.000000,155.500000 250.531342,155.749756 
	C197.939117,155.999512 145.815552,155.999512 93.431885,155.999512 
	C99.748802,171.756973 116.360725,181.905304 133.135391,182.939636 
	C149.182190,183.929062 163.858536,179.583160 177.137253,170.445023 
	C181.153015,167.681442 184.913666,168.683640 187.877182,172.466309 
	C193.225525,179.292999 198.802200,185.940323 204.201035,192.728180 
	C207.958359,197.452240 211.577881,202.285889 215.120209,207.439240 
	C214.481262,208.535385 214.125931,209.710388 213.460052,209.925919 
	C186.786194,218.559769 159.888885,219.925598 132.968185,211.379562 
	C51.873661,185.635956 17.701942,91.970695 62.873615,19.880445 
	C63.990864,18.097403 63.533337,15.327603 63.997047,12.705379 
	C72.422577,9.237198 80.670975,6.106137 88.877960,2.870033 
	C89.414368,2.658520 89.633362,1.642044 90.000000,1.000001 
M117.508850,68.872101 
	C101.895157,73.271561 89.562820,88.272751 89.522331,101.751595 
	C114.249443,101.751595 138.975571,101.751595 164.214706,101.751595 
	C163.767807,99.270142 163.695557,96.994843 162.940765,94.974556 
	C156.936188,78.902901 139.135544,63.061691 117.508850,68.872101 
M140.500000,104.000000 
	C148.273422,104.000000 156.046829,104.000000 163.820251,104.000000 
	C163.813660,103.776291 163.807068,103.552582 163.800476,103.328873 
	C139.265045,103.328873 114.729607,103.328873 90.194168,103.328873 
	C90.194321,103.552582 90.194466,103.776291 90.194611,104.000000 
	C106.629738,104.000000 123.064873,104.000000 140.500000,104.000000 
z"/>
<path fill="#025DB7" opacity="1.000000" stroke="none" 
	d="
M63.810276,13.018024 
	C63.533337,15.327603 63.990864,18.097403 62.873615,19.880445 
	C17.701942,91.970695 51.873661,185.635956 132.968185,211.379562 
	C159.888885,219.925598 186.786194,218.559769 213.460052,209.925919 
	C214.125931,209.710388 214.481262,208.535385 215.366730,207.641098 
	C219.466949,211.869751 223.181885,216.265182 227.447495,221.312164 
	C224.954346,223.993347 222.553711,226.575043 219.865997,229.072784 
	C216.784775,229.993408 213.990616,230.998032 210.558548,232.232010 
	C212.142578,233.232346 212.956268,233.746201 213.727875,234.418839 
	C213.685776,234.577621 213.367233,234.658173 213.066406,234.547150 
	C212.140930,234.895645 211.516266,235.355179 210.717438,235.875046 
	C210.543289,235.935379 210.175079,235.952576 210.082306,235.657990 
	C206.206680,232.782059 202.007553,234.869812 200.650665,239.892334 
	C198.832565,240.169571 197.346771,240.395859 195.637756,240.791748 
	C195.272400,241.294662 195.130219,241.627975 194.995667,241.980255 
	C195.003265,241.999237 194.974258,241.971268 194.653931,241.837875 
	C191.263809,241.784103 188.194016,241.863708 185.124207,241.943314 
	C185.247604,242.609985 185.371002,243.276672 185.098145,243.991638 
	C181.478088,244.735199 178.254272,245.430466 174.887024,245.793823 
	C171.847000,242.178940 169.427689,245.359787 166.454926,246.012360 
	C165.356216,246.077698 164.626801,246.177383 163.550995,246.186676 
	C162.492859,246.073792 161.781082,246.051270 160.725845,246.026093 
	C159.588242,246.682281 158.794113,247.341141 158.000000,248.000000 
	C141.312439,248.000000 124.624878,248.000000 107.236282,247.790863 
	C105.733635,247.412018 104.932022,247.242294 103.930374,246.753510 
	C102.697090,245.967102 101.682602,245.451691 100.627609,245.040070 
	C92.446075,241.847870 82.793205,244.275543 75.245766,238.459900 
	C75.007507,238.276291 73.767433,239.392838 72.621964,239.949615 
	C70.864784,239.605667 69.480049,239.215408 68.279297,238.688766 
	C69.109627,238.206848 69.755974,237.861313 70.402313,237.515778 
	C70.039879,237.052338 69.770622,236.410614 69.295677,236.162399 
	C68.290154,235.636856 67.205696,235.112381 66.101967,234.958939 
	C64.337685,234.713638 62.531376,234.770615 60.611191,234.709106 
	C60.479546,234.718414 60.428230,234.459503 60.526474,234.156097 
	C60.588383,230.779205 59.933456,228.457550 55.813591,230.161240 
	C55.299915,230.378845 55.040470,230.558456 54.594841,230.829315 
	C54.376648,230.874344 53.938786,230.969070 53.716415,230.938660 
	C53.494045,230.908249 53.063091,230.782654 52.894341,230.628540 
	C52.485622,230.283691 52.223633,230.130630 51.969917,230.014313 
	C52.000217,230.013336 51.943222,230.036346 52.139091,229.858032 
	C52.953274,229.207336 53.571590,228.734970 54.115658,228.319336 
	C48.566971,223.722412 43.147633,219.232651 37.796894,214.799728 
	C36.607998,215.692459 35.744961,216.340515 34.605995,216.829254 
	C33.502331,215.453705 32.674606,214.237427 32.109550,212.848618 
	C31.890728,210.455032 31.409235,208.233994 30.927742,206.012955 
	C30.361660,206.047943 29.795578,206.082916 29.229496,206.117905 
	C28.438988,207.070770 27.648481,208.023636 26.562263,208.834732 
	C22.800655,203.117783 19.731968,197.240829 15.778245,192.036209 
	C9.422741,183.669937 6.629539,173.843765 3.093669,164.276367 
	C2.654685,163.088562 1.710229,162.087570 0.999998,161.000000 
	C1.000000,137.645767 1.000000,114.291542 1.204537,90.785324 
	C2.648139,87.423668 3.887205,84.214005 5.403616,80.988266 
	C7.197036,79.433220 8.851068,78.004791 10.194760,76.327705 
	C11.929591,74.162430 11.817002,72.162643 9.021614,70.528015 
	C14.337506,61.450172 19.616587,52.736603 25.283791,43.996391 
	C34.056900,41.747467 37.847565,34.746494 42.384132,28.110502 
	C43.181076,27.670599 43.668739,27.319862 44.546978,26.971039 
	C51.584366,26.378340 53.401772,24.544319 53.083435,18.623688 
	C53.768276,18.252563 54.323627,18.141008 55.027790,18.164085 
	C55.495556,17.920139 55.814514,17.541565 56.421234,16.982494 
	C59.076088,15.540674 61.443180,14.279349 63.810276,13.018024 
M55.498379,21.535904 
	C55.498379,21.535904 55.474335,21.479834 55.498379,21.535904 
z"/>
<path fill="#000000" opacity="1.000000" stroke="none" 
	d="
M210.175079,235.952576 
	C210.175079,235.952576 210.543289,235.935379 211.025360,235.921783 
	C212.127380,235.491531 212.747299,235.074844 213.367218,234.658173 
	C213.367233,234.658173 213.685776,234.577621 214.045013,234.335480 
	C216.779984,232.982864 220.955780,233.968613 220.153046,229.156738 
	C222.553711,226.575043 224.954346,223.993347 227.447495,221.312164 
	C223.181885,216.265182 219.466949,211.869751 215.505493,207.272461 
	C211.577881,202.285889 207.958359,197.452240 204.201035,192.728180 
	C198.802200,185.940323 193.225525,179.292999 187.877182,172.466309 
	C184.913666,168.683640 181.153015,167.681442 177.137253,170.445023 
	C163.858536,179.583160 149.182190,183.929062 133.135391,182.939636 
	C116.360725,181.905304 99.748802,171.756973 93.431885,155.999512 
	C145.815552,155.999512 197.939117,155.999512 250.531342,155.999756 
	C251.000000,186.586594 251.000000,217.173203 251.000000,248.000000 
	C225.979614,248.000000 200.958466,248.000000 175.174210,247.757324 
	C174.617554,247.051682 174.824020,246.588715 175.030457,246.125732 
	C178.254272,245.430466 181.478088,244.735199 185.301605,244.328217 
	C188.925613,243.734756 191.949936,242.853012 194.974258,241.971268 
	C194.974258,241.971268 195.003265,241.999237 195.201859,241.949341 
	C195.553955,241.473679 195.707474,241.047913 195.860962,240.622131 
	C197.346771,240.395859 198.832565,240.169571 200.986710,239.827820 
	C202.950928,239.062103 204.222885,238.357300 205.548950,237.775940 
	C207.065903,237.110886 208.630936,236.555573 210.175079,235.952576 
z"/>
<path fill="#000000" opacity="1.000000" stroke="none" 
	d="
M63.997047,12.705379 
	C61.443180,14.279349 59.076088,15.540674 56.144398,17.001179 
	C55.346199,17.476727 55.112591,17.753092 54.878983,18.029457 
	C54.323627,18.141008 53.768276,18.252563 52.781357,18.795862 
	C49.618664,21.808113 46.887531,24.388618 44.156399,26.969124 
	C43.668739,27.319862 43.181076,27.670599 42.038826,28.075603 
	C39.913292,29.038054 38.442348,29.946234 36.737244,30.955605 
	C36.323639,31.334211 36.144199,31.611628 35.673836,32.058640 
	C31.887163,36.159836 28.391415,40.091434 24.895666,44.023033 
	C19.616587,52.736603 14.337506,61.450172 8.724346,70.736809 
	C7.302268,74.541359 6.214268,77.772850 5.126269,81.004333 
	C3.887205,84.214005 2.648139,87.423668 1.204537,90.316666 
	C1.000000,60.406418 1.000000,30.812840 1.000000,1.000000 
	C30.353865,1.000000 59.708275,1.000000 89.531342,1.000001 
	C89.633362,1.642044 89.414368,2.658520 88.877960,2.870033 
	C80.670975,6.106137 72.422577,9.237198 63.997047,12.705379 
z"/>
<path fill="#000000" opacity="1.000000" stroke="none" 
	d="
M68.095314,238.825150 
	C69.480049,239.215408 70.864784,239.605667 72.941429,240.112976 
	C78.311310,242.147415 83.009644,244.017685 87.649643,246.022949 
	C88.549774,246.411957 89.222420,247.327393 90.000000,248.000000 
	C60.407257,248.000000 30.814512,248.000000 1.000000,248.000000 
	C1.000000,219.312820 1.000000,190.625061 0.999998,161.468658 
	C1.710229,162.087570 2.654685,163.088562 3.093669,164.276367 
	C6.629539,173.843765 9.422741,183.669937 15.778245,192.036209 
	C19.731968,197.240829 22.800655,203.117783 26.727119,209.129547 
	C28.740753,210.717789 30.293819,211.869476 31.846882,213.021164 
	C32.674606,214.237427 33.502331,215.453705 34.763386,217.136841 
	C40.778881,221.747940 46.361050,225.892136 51.943222,230.036346 
	C51.943222,230.036346 52.000217,230.013336 52.068283,230.254120 
	C52.445267,230.590820 52.754181,230.686737 53.063091,230.782654 
	C53.063091,230.782654 53.494045,230.908249 53.819679,231.188843 
	C54.426670,231.685181 54.708023,231.900940 55.067986,232.340210 
	C55.146595,232.563721 55.516258,232.861252 55.516258,232.861252 
	C55.516258,232.861252 55.990009,232.832733 56.309692,232.990692 
	C57.895660,233.585602 59.161945,234.022552 60.428230,234.459503 
	C60.428230,234.459503 60.479546,234.718414 60.747707,234.985428 
	C63.375683,236.443344 65.735497,237.634247 68.095314,238.825150 
z"/>
<path fill="#000000" opacity="1.000000" stroke="none" 
	d="
M251.000000,90.531342 
	C250.000183,89.361351 248.605911,87.843323 248.062210,86.065201 
	C243.150513,70.002007 236.239716,54.878899 225.949142,41.582623 
	C211.656952,23.115940 192.937256,10.878252 170.661819,3.987931 
	C168.846939,3.426543 167.164871,2.435852 165.710541,1.322322 
	C194.262329,1.000000 222.524643,1.000000 251.000000,1.000000 
	C251.000000,30.687222 251.000000,60.374950 251.000000,90.531342 
z"/>
<path fill="#000000" opacity="1.000000" stroke="none" 
	d="
M251.000000,154.750000 
	C198.048615,155.000000 145.097244,155.000000 92.145866,155.000000 
	C92.145340,154.666504 92.144821,154.333023 92.144295,153.999527 
	C144.783752,153.999527 197.423218,153.999527 250.531342,153.999756 
	C251.000000,154.000000 251.000000,154.500000 251.000000,154.750000 
z"/>
<path fill="#1E55A5" opacity="1.000000" stroke="none" 
	d="
M90.464645,248.000000 
	C89.222420,247.327393 88.549774,246.411957 87.649643,246.022949 
	C83.009644,244.017685 78.311310,242.147415 73.313858,240.066666 
	C73.767433,239.392838 75.007507,238.276291 75.245766,238.459900 
	C82.793205,244.275543 92.446075,241.847870 100.627609,245.040070 
	C101.682602,245.451691 102.697090,245.967102 103.866188,246.981018 
	C104.002037,247.527573 104.000000,248.000000 104.000000,248.000000 
	C99.643097,248.000000 95.286201,248.000000 90.464645,248.000000 
z"/>
<path fill="#1957A9" opacity="1.000000" stroke="none" 
	d="
M174.887024,245.793823 
	C174.824020,246.588715 174.617554,247.051682 174.705551,247.757324 
	C169.645065,248.000000 164.290146,248.000000 158.467606,248.000000 
	C158.794113,247.341141 159.588242,246.682281 160.831848,246.343689 
	C162.150162,246.651749 163.018982,246.639526 164.213745,246.749634 
	C165.301208,246.596863 166.062714,246.321777 166.824219,246.046692 
	C169.427689,245.359787 171.847000,242.178940 174.887024,245.793823 
z"/>
<path fill="#0074E9" opacity="1.000000" stroke="none" 
	d="
M104.375000,248.000000 
	C104.000000,248.000000 104.002037,247.527573 104.066223,247.300064 
	C104.932022,247.242294 105.733635,247.412018 106.767624,247.790863 
	C106.250000,248.000000 105.500000,248.000000 104.375000,248.000000 
z"/>
<path fill="#000000" opacity="1.000000" stroke="none" 
	d="
M251.000000,93.750000 
	C250.566666,94.001900 250.133316,94.003807 249.699982,94.005707 
	C249.959991,93.452103 250.220001,92.898506 250.740021,92.672455 
	C251.000000,93.000000 251.000000,93.500000 251.000000,93.750000 
z"/>
<path fill="#000000" opacity="1.000000" stroke="none" 
	d="
M117.835693,68.617523 
	C139.135544,63.061691 156.936188,78.902901 162.940765,94.974556 
	C163.695557,96.994843 163.767807,99.270142 164.214706,101.751595 
	C138.975571,101.751595 114.249443,101.751595 89.522331,101.751595 
	C89.562820,88.272751 101.895157,73.271561 117.835693,68.617523 
z"/>
<path fill="#000000" opacity="1.000000" stroke="none" 
	d="
M140.000000,104.000000 
	C123.064873,104.000000 106.629738,104.000000 90.194611,104.000000 
	C90.194466,103.776291 90.194321,103.552582 90.194168,103.328873 
	C114.729607,103.328873 139.265045,103.328873 163.800476,103.328873 
	C163.807068,103.552582 163.813660,103.776291 163.820251,104.000000 
	C156.046829,104.000000 148.273422,104.000000 140.000000,104.000000 
z"/>
<path fill="#1957A9" opacity="1.000000" stroke="none" 
	d="
M52.139091,229.858032 
	C46.361050,225.892136 40.778881,221.747940 35.039322,217.296143 
	C35.744961,216.340515 36.607998,215.692459 37.796894,214.799728 
	C43.147633,219.232651 48.566971,223.722412 54.115658,228.319336 
	C53.571590,228.734970 52.953274,229.207336 52.139091,229.858032 
z"/>
<path fill="#1C57A9" opacity="1.000000" stroke="none" 
	d="
M36.971405,30.854414 
	C38.442348,29.946234 39.913292,29.038054 41.729546,28.164772 
	C37.847565,34.746494 34.056900,41.747467 25.283791,43.996391 
	C28.391415,40.091434 31.887163,36.159836 35.813217,32.200504 
	C36.486149,31.733318 36.728775,31.293867 36.971405,30.854414 
z"/>
<path fill="#2354A1" opacity="1.000000" stroke="none" 
	d="
M44.546978,26.971037 
	C46.887531,24.388618 49.618664,21.808113 52.651871,19.055433 
	C53.401772,24.544319 51.584366,26.378340 44.546978,26.971037 
z"/>
<path fill="#2154A3" opacity="1.000000" stroke="none" 
	d="
M5.403615,80.988266 
	C6.214268,77.772850 7.302268,74.541359 8.687534,71.101089 
	C11.817002,72.162643 11.929591,74.162430 10.194760,76.327705 
	C8.851068,78.004791 7.197036,79.433220 5.403615,80.988266 
z"/>
<path fill="#2354A1" opacity="1.000000" stroke="none" 
	d="
M219.865997,229.072769 
	C220.955780,233.968613 216.779984,232.982864 214.087097,234.176697 
	C212.956268,233.746201 212.142578,233.232346 210.558548,232.232010 
	C213.990616,230.998032 216.784775,229.993408 219.865997,229.072769 
z"/>
<path fill="#2354A1" opacity="1.000000" stroke="none" 
	d="
M32.109554,212.848618 
	C30.293819,211.869476 28.740753,210.717789 27.022831,209.271301 
	C27.648481,208.023636 28.438988,207.070770 29.229496,206.117905 
	C29.795578,206.082916 30.361660,206.047943 30.927742,206.012955 
	C31.409235,208.233994 31.890728,210.455032 32.109554,212.848618 
z"/>
<path fill="#2354A1" opacity="1.000000" stroke="none" 
	d="
M210.082306,235.657990 
	C208.630936,236.555573 207.065903,237.110886 205.548950,237.775940 
	C204.222885,238.357300 202.950928,239.062103 201.319016,239.776871 
	C202.007553,234.869812 206.206680,232.782059 210.082306,235.657990 
z"/>
<path fill="#3A4E94" opacity="1.000000" stroke="none" 
	d="
M194.653931,241.837875 
	C191.949936,242.853012 188.925613,243.734756 185.697845,244.279938 
	C185.371002,243.276672 185.247604,242.609985 185.124207,241.943314 
	C188.194016,241.863708 191.263809,241.784103 194.653931,241.837875 
z"/>
<path fill="#2154A3" opacity="1.000000" stroke="none" 
	d="
M68.279297,238.688766 
	C65.735497,237.634247 63.375683,236.443344 60.879349,234.976120 
	C62.531376,234.770615 64.337685,234.713638 66.101967,234.958939 
	C67.205696,235.112381 68.290154,235.636856 69.295677,236.162399 
	C69.770622,236.410614 70.039879,237.052338 70.402313,237.515778 
	C69.755974,237.861313 69.109627,238.206848 68.279297,238.688766 
z"/>
<path fill="#2154A3" opacity="1.000000" stroke="none" 
	d="
M60.526474,234.156097 
	C59.161945,234.022552 57.895660,233.585602 56.322697,232.670807 
	C56.022163,231.764954 56.028309,231.336945 56.034607,230.700943 
	C56.034756,230.492966 56.035812,230.077011 56.035812,230.077011 
	C59.933456,228.457550 60.588383,230.779205 60.526474,234.156097 
z"/>
<path fill="#2354A1" opacity="1.000000" stroke="none" 
	d="
M213.066406,234.547134 
	C212.747299,235.074844 212.127380,235.491531 211.199524,235.861450 
	C211.516266,235.355179 212.140930,234.895645 213.066406,234.547134 
z"/>
<path fill="#2354A1" opacity="1.000000" stroke="none" 
	d="
M55.027790,18.164085 
	C55.112591,17.753092 55.346199,17.476727 55.856636,17.181675 
	C55.814514,17.541565 55.495556,17.920139 55.027790,18.164085 
z"/>
<path fill="#ED1C24" opacity="1.000000" stroke="none" 
	d="
M163.887817,246.627319 
	C163.018982,246.639526 162.150162,246.651749 161.175323,246.346359 
	C161.781082,246.051270 162.492859,246.073792 163.521393,246.273529 
	C163.838165,246.450745 163.887817,246.627319 163.887817,246.627319 
z"/>
<path fill="#000000" opacity="1.000000" stroke="none" 
	d="
M164.213745,246.749634 
	C163.887817,246.627319 163.838165,246.450745 163.867767,246.363892 
	C164.626801,246.177383 165.356216,246.077698 166.454926,246.012360 
	C166.062714,246.321777 165.301208,246.596863 164.213745,246.749634 
z"/>
<path fill="#3A4E94" opacity="1.000000" stroke="none" 
	d="
M195.637772,240.791748 
	C195.707474,241.047913 195.553955,241.473679 195.194244,241.930359 
	C195.130219,241.627975 195.272400,241.294662 195.637772,240.791748 
z"/>
<path fill="#1957A9" opacity="1.000000" stroke="none" 
	d="
M55.813591,230.161240 
	C56.035812,230.077011 56.034756,230.492966 55.813160,230.760223 
	C55.591564,231.027481 55.149929,231.145782 55.064674,231.056366 
	C54.979416,230.966965 54.813034,230.784302 54.813034,230.784302 
	C55.040470,230.558456 55.299915,230.378845 55.813591,230.161240 
z"/>
<path fill="#1957A9" opacity="1.000000" stroke="none" 
	d="
M54.989376,232.116699 
	C54.708023,231.900940 54.426670,231.685181 54.042049,231.219238 
	C53.938786,230.969070 54.376648,230.874344 54.594841,230.829315 
	C54.813034,230.784302 54.979416,230.966965 55.023170,231.298325 
	C55.066921,231.629684 54.989376,232.116699 54.989376,232.116699 
z"/>
<path fill="#1957A9" opacity="1.000000" stroke="none" 
	d="
M52.894341,230.628540 
	C52.754181,230.686737 52.445267,230.590820 52.037987,230.255096 
	C52.223633,230.130630 52.485622,230.283691 52.894341,230.628540 
z"/>
<path fill="#2354A1" opacity="1.000000" stroke="none" 
	d="
M55.486359,21.507870 
	C55.474335,21.479834 55.498379,21.535904 55.486359,21.507870 
z"/>
<path fill="#025DB7" opacity="1.000000" stroke="none" 
	d="
M36.737244,30.955605 
	C36.728775,31.293867 36.486149,31.733318 36.104137,32.030907 
	C36.144199,31.611628 36.323639,31.334211 36.737244,30.955605 
z"/>
<path fill="#025DB7" opacity="1.000000" stroke="none" 
	d="
M55.067986,232.340210 
	C54.989376,232.116699 55.066921,231.629684 55.108425,231.387726 
	C55.149929,231.145782 55.591564,231.027481 55.813011,230.968201 
	C56.028309,231.336945 56.022163,231.764954 56.003014,232.512848 
	C55.990009,232.832733 55.516258,232.861252 55.516258,232.861252 
	C55.516258,232.861252 55.146595,232.563721 55.067986,232.340210 
z"/>
</svg>