<?xml version="1.0" standalone="no"?>
<!DOCTYPE svg PUBLIC "-//W3C//DTD SVG 20010904//EN"
 "http://www.w3.org/TR/2001/REC-SVG-20010904/DTD/svg10.dtd">
<svg version="1.0" xmlns="http://www.w3.org/2000/svg"
 width="512.000000pt" height="512.000000pt" viewBox="0 0 512.000000 512.000000"
 preserveAspectRatio="xMidYMid meet">

<g transform="translate(0.000000,512.000000) scale(0.100000,-0.100000)"
fill="#000000" stroke="none">
<path d="M1760 4394 c-215 -46 -416 -243 -464 -455 -8 -35 -94 -669 -192
-1409 -171 -1302 -176 -1348 -165 -1425 24 -177 125 -302 297 -367 l59 -23
990 0 990 0 65 23 c94 34 167 82 236 154 108 112 155 223 155 364 0 46 -5 102
-12 126 -27 103 -94 193 -180 245 -106 63 -104 63 -837 63 l-663 0 6 32 c3 18
53 395 110 838 58 443 108 820 111 838 l6 32 667 0 c740 0 724 -1 852 66 120
63 226 184 270 309 26 74 36 215 20 281 -41 163 -168 283 -331 314 -33 6 -398
10 -989 9 -763 0 -948 -3 -1001 -15z"/>
<path d="M2880 3124 c-191 -50 -346 -198 -405 -386 -20 -62 -25 -100 -25 -176
0 -174 49 -293 169 -413 126 -126 256 -176 438 -167 200 10 369 116 469 294
185 330 -2 763 -367 849 -80 18 -207 18 -279 -1z"/>
</g>
</svg>
